<svg width="2697" height="391" viewBox="0 0 2697 391" fill="none" xmlns="http://www.w3.org/2000/svg">
<g clip-path="url(#clip0_33_2)">
<path d="M341.455 6.63635V379H289.818L100.545 105.909H97.0909V379H40.9091V6.63635H92.9091L282.364 280.091H285.818V6.63635H341.455Z" fill="black"/>
<path d="M64 193H195.5" stroke="black" stroke-width="56"/>
<rect x="192" y="6" width="252" height="56" fill="black"/>
<path d="M516.364 382.455C506.424 382.455 497.879 378.939 490.727 371.909C483.576 364.758 480 356.152 480 346.091C480 336.152 483.576 327.667 490.727 320.636C497.879 313.485 506.424 309.909 516.364 309.909C526.303 309.909 534.848 313.485 542 320.636C549.152 327.667 552.727 336.152 552.727 346.091C552.727 352.758 551.03 358.879 547.636 364.455C544.364 369.909 540 374.273 534.545 377.545C529.091 380.818 523.03 382.455 516.364 382.455ZM629.909 379V6.63635H766.273C792.697 6.63635 814.576 11 831.909 19.7273C849.242 28.3333 862.212 40.0303 870.818 54.8182C879.424 69.4848 883.727 86.0303 883.727 104.455C883.727 119.97 880.879 133.061 875.182 143.727C869.485 154.273 861.849 162.758 852.273 169.182C842.818 175.485 832.394 180.091 821 183V186.636C833.364 187.242 845.424 191.242 857.182 198.636C869.061 205.909 878.879 216.273 886.636 229.727C894.394 243.182 898.273 259.545 898.273 278.818C898.273 297.848 893.788 314.939 884.818 330.091C875.97 345.121 862.273 357.061 843.727 365.909C825.182 374.636 801.485 379 772.636 379H629.909ZM686.091 330.818H767.182C794.091 330.818 813.364 325.606 825 315.182C836.636 304.758 842.455 291.727 842.455 276.091C842.455 264.333 839.485 253.545 833.545 243.727C827.606 233.909 819.121 226.091 808.091 220.273C797.182 214.455 784.212 211.545 769.182 211.545H686.091V330.818ZM686.091 167.727H761.364C773.97 167.727 785.303 165.303 795.364 160.455C805.545 155.606 813.606 148.818 819.545 140.091C825.606 131.242 828.636 120.818 828.636 108.818C828.636 93.4242 823.242 80.5151 812.455 70.0909C801.667 59.6667 785.121 54.4545 762.818 54.4545H686.091V167.727ZM1204.36 6.63635H1260.73V251.545C1260.73 277.606 1254.61 300.697 1242.36 320.818C1230.12 340.818 1212.91 356.576 1190.73 368.091C1168.55 379.485 1142.55 385.182 1112.73 385.182C1083.03 385.182 1057.09 379.485 1034.91 368.091C1012.73 356.576 995.515 340.818 983.273 320.818C971.03 300.697 964.909 277.606 964.909 251.545V6.63635H1021.09V247C1021.09 263.848 1024.79 278.818 1032.18 291.909C1039.7 305 1050.3 315.303 1064 322.818C1077.7 330.212 1093.94 333.909 1112.73 333.909C1131.64 333.909 1147.94 330.212 1161.64 322.818C1175.45 315.303 1186 305 1193.27 291.909C1200.67 278.818 1204.36 263.848 1204.36 247V6.63635ZM1462.95 379H1342.41V6.63635H1466.77C1503.26 6.63635 1534.59 14.0909 1560.77 29C1586.95 43.7879 1607.02 65.0606 1620.95 92.8182C1635.02 120.455 1642.05 153.606 1642.05 192.273C1642.05 231.061 1634.95 264.394 1620.77 292.273C1606.71 320.152 1586.35 341.606 1559.68 356.636C1533.02 371.545 1500.77 379 1462.95 379ZM1398.59 329.909H1459.86C1488.23 329.909 1511.8 324.576 1530.59 313.909C1549.38 303.121 1563.44 287.545 1572.77 267.182C1582.11 246.697 1586.77 221.727 1586.77 192.273C1586.77 163.061 1582.11 138.273 1572.77 117.909C1563.56 97.5454 1549.8 82.0909 1531.5 71.5454C1513.2 61 1490.47 55.7273 1463.32 55.7273H1398.59V329.909ZM1963.91 124.273C1960.39 113.242 1955.67 103.364 1949.73 94.6364C1943.91 85.7879 1936.94 78.2727 1928.82 72.0909C1920.7 65.7879 1911.42 61 1901 57.7273C1890.7 54.4545 1879.36 52.8182 1867 52.8182C1846.03 52.8182 1827.12 58.2121 1810.27 69C1793.42 79.7879 1780.09 95.6061 1770.27 116.455C1760.58 137.182 1755.73 162.576 1755.73 192.636C1755.73 222.818 1760.64 248.333 1770.45 269.182C1780.27 290.03 1793.73 305.848 1810.82 316.636C1827.91 327.424 1847.36 332.818 1869.18 332.818C1889.42 332.818 1907.06 328.697 1922.09 320.455C1937.24 312.212 1948.94 300.576 1957.18 285.545C1965.55 270.394 1969.73 252.576 1969.73 232.091L1984.27 234.818H1877.73V188.455H2024.09V230.818C2024.09 262.091 2017.42 289.242 2004.09 312.273C1990.88 335.182 1972.58 352.879 1949.18 365.364C1925.91 377.848 1899.24 384.091 1869.18 384.091C1835.48 384.091 1805.91 376.333 1780.45 360.818C1755.12 345.303 1735.36 323.303 1721.18 294.818C1707 266.212 1699.91 232.273 1699.91 193C1699.91 163.303 1704.03 136.636 1712.27 113C1720.52 89.3636 1732.09 69.303 1747 52.8182C1762.03 36.2121 1779.67 23.5455 1799.91 14.8182C1820.27 5.96969 1842.52 1.54544 1866.64 1.54544C1886.76 1.54544 1905.48 4.51514 1922.82 10.4545C1940.27 16.3939 1955.79 24.8182 1969.36 35.7273C1983.06 46.6364 1994.39 59.6061 2003.36 74.6364C2012.33 89.5455 2018.39 106.091 2021.55 124.273H1963.91ZM2095.41 379V6.63635H2328.86V55H2151.59V168.455H2316.68V216.636H2151.59V330.636H2331.05V379H2095.41ZM2385.55 55V6.63635H2673.73V55H2557.55V379H2501.55V55H2385.55Z" fill="black"/>
</g>
<defs>
<clipPath id="clip0_33_2">
<rect width="2697" height="391" fill="white"/>
</clipPath>
</defs>
</svg>
